<svg width="164" height="111" viewBox="0 0 164 111" fill="none" xmlns="http://www.w3.org/2000/svg">
<g clip-path="url(#clip0_380_9)">
<path d="M59.9006 3.67149C57.5774 3.01017 55.2313 2.37165 52.9652 1.51649C50.7565 0.684129 49.5891 1.22003 48.8452 3.50046C43.226 21.0028 37.5495 38.4937 31.9073 55.996C30.7514 57.1248 29.092 58.3334 26.8603 59.6561C23.4727 61.6629 21.0007 62.8031 19.4442 63.0767C18.5287 63.624 17.7505 63.4872 17.1096 62.6663C16.1024 61.298 16.2398 59.428 17.5216 57.0564C17.5216 56.6003 17.9565 55.8706 18.8262 54.8672C19.696 53.8638 20.2225 53.1797 20.4056 52.8148C20.4971 52.0851 20.726 51.1501 21.0923 50.0099C21.4585 48.8696 21.6416 48.0259 21.6416 47.4786C22.2825 46.9313 22.6029 46.4296 22.6029 45.9735C22.8776 45.2438 23.6329 44.0579 24.8689 42.416C26.105 40.7741 26.7687 39.3602 26.8603 38.1744C27.2265 37.171 27.547 36.6693 27.8216 36.6693C28.2794 36.122 28.7372 35.1871 29.195 33.8644C29.6528 32.5418 29.9732 31.7436 30.1563 31.47L33.5897 23.3972C34.5052 21.7553 34.963 19.3381 34.963 16.1455C34.963 12.7704 33.6812 9.94268 31.1177 7.66225C31.2092 7.3886 30.225 6.38521 28.165 4.65208C26.105 2.91895 25.1207 1.91556 25.2123 1.64191C25.2123 1.45948 25.1207 1.25424 24.9376 1.02619C24.7545 0.798151 24.6401 0.638521 24.5943 0.547304C24.5599 0.456086 24.5828 0.273652 24.6744 0C22.8433 0.273652 21.8819 1.25424 21.7904 2.94176C21.6988 4.62928 21.859 6.70447 22.271 9.16733C22.683 11.6302 22.1108 14.4579 20.5544 17.6505C18.8148 21.2992 16.0681 26.453 12.3143 33.1119C8.5605 39.7707 5.90537 44.5596 4.34892 47.4786C1.96846 51.857 0.549337 55.5513 0.0915562 58.5615C-0.0915562 60.7507 0 62.0277 0.366225 62.3926C1.00712 66.3149 2.2889 68.5042 4.21158 68.9603C4.66936 69.5988 4.98981 70.1461 5.17292 70.6022C8.65206 73.4299 14.1454 73.6123 21.653 71.1495C22.7975 70.8416 24.9834 69.6672 28.1764 67.649C25.693 75.4025 23.2209 83.1559 20.7718 90.9322C18.9407 96.7359 18.2883 102.916 17.0867 108.925C17.3728 109.05 17.6475 109.176 17.9336 109.301C18.666 108.913 19.4328 108.594 20.1195 108.149C25.4183 104.752 28.9432 99.8031 31.9874 94.4555C39.2089 81.7763 43.5121 67.8998 48.4218 54.2743C49.1771 52.1763 47.8381 51.5378 46.4991 50.7054C42.711 48.3223 42.2303 46.9427 44.4505 43.1458C49.5662 34.4231 54.1555 25.5408 55.3228 15.2789C55.4373 14.2983 56.3757 12.8046 57.1768 12.6222C60.6674 11.8354 60.7132 8.95069 61.5143 6.45362C62.0179 4.88012 61.3884 4.09337 59.9006 3.67149Z" fill="white"/>
<path d="M74.801 20.1134L76.1743 21.6185C78.1886 17.1489 79.3788 14.7316 79.745 14.3667C80.0197 13.8194 80.5233 13.5002 81.2557 13.409C81.9882 13.3177 82.4459 13.1809 82.6291 12.9985C83.9108 14.0931 85.2842 14.6404 86.7491 14.6404C87.1153 14.6404 87.6646 14.5492 88.3971 14.3667C89.2211 14.3667 90.48 14.7088 92.1738 15.3929C93.8676 16.0771 94.806 16.4647 94.9891 16.5559L97.0492 18.7452C98.9718 19.5661 100.437 21.9378 101.444 25.8601C102.451 29.7825 102.955 33.4311 102.955 36.8062C102.955 45.2894 101.398 53.5445 98.2852 61.5717C97.3696 64.217 95.3554 67.7744 92.2425 72.2441C89.1295 76.7137 85.9251 79.6783 82.6291 81.1378L81.9424 81.8219C80.0197 82.8253 77.1357 83.7831 73.2903 84.6952H71.917C64.7756 84.6952 59.2136 82.164 55.2309 77.1014C51.2482 72.0388 49.2568 66.0413 49.2568 59.1088C49.2568 57.5581 50.3097 52.4499 52.4155 43.7843C55.8031 37.2167 60.152 30.5122 65.4623 23.6709C66.1032 22.4851 68.2547 21.2992 71.917 20.1134H74.801ZM73.2903 30.9227H72.6037C71.8712 31.9261 71.1388 33.3855 70.4063 35.3011C69.6739 37.2167 68.9872 38.6305 68.3463 39.5427H69.033C69.033 40.2724 68.7583 41.1846 68.209 42.2792C67.6596 43.3738 67.2018 44.1036 66.8356 44.4684C66.8356 44.9245 66.7212 45.6543 66.4923 46.6576C66.2634 47.661 66.1489 48.3908 66.1489 48.8469V51.7202C65.3249 51.7202 64.6383 54.1603 64.0889 59.0404C63.5396 63.9205 63.2649 67.2271 63.2649 68.9603C63.3565 69.3251 63.5167 69.9408 63.7456 70.8074C63.9745 71.674 64.1805 72.3353 64.3636 72.7914C64.5467 73.2475 64.7985 73.772 65.1189 74.3649C65.4394 74.9578 65.8743 75.3911 66.4236 75.6647C66.973 75.9384 67.6138 76.0752 68.3463 76.0752C71.8254 74.3421 74.801 71.9704 77.273 68.9603C79.745 65.9501 83.0868 60.3402 87.2984 52.1307C88.7633 49.1205 90.0909 45.5174 91.2811 41.3214C92.4713 37.1254 93.0665 33.6136 93.0665 30.7858C93.0665 28.323 92.1967 25.7005 90.4571 22.9184C88.7175 20.1362 86.6117 18.4715 84.1397 17.9242C83.7735 18.3803 83.4759 19.0188 83.2471 19.8398C83.0182 20.6607 82.8122 21.6641 82.6291 22.8499C82.4459 24.0358 82.2171 25.0392 81.9424 25.8601V27.3652C81.4846 28.2774 81.2557 29.4632 81.2557 30.9227C81.4388 31.1051 81.5304 31.3331 81.5304 31.6068L81.2557 32.2909C80.7979 33.9328 80.3173 36.4641 79.8137 39.8848C79.3101 43.3054 78.8066 45.9963 78.303 47.9575C77.7995 49.9187 77.0899 50.8992 76.1743 50.8992C74.801 50.8992 73.5879 50.1923 72.535 48.7784C71.4821 47.3646 70.9556 45.7911 70.9556 44.058C70.9556 40.2268 71.7339 35.8484 73.2903 30.9227Z" fill="white"/>
<path d="M162.203 5.37041C159.88 4.70908 157.534 4.07056 155.268 3.2154C153.059 2.38304 151.892 2.91894 151.148 5.19938C145.528 22.7017 139.852 40.1926 134.21 57.6949C133.054 58.8237 131.394 60.0324 129.163 61.355C125.775 63.3618 123.303 64.502 121.747 64.7757C120.831 65.323 120.053 65.1861 119.412 64.3652C118.405 62.9969 118.542 61.127 119.824 58.7553C119.824 58.2992 120.259 57.5695 121.129 56.5661C121.998 55.5627 122.525 54.8786 122.708 54.5137C122.8 53.784 123.028 52.849 123.395 51.7088C123.761 50.5686 123.944 49.7248 123.944 49.1775C124.585 48.6302 124.905 48.1285 124.905 47.6724C125.18 46.9427 125.935 45.7568 127.171 44.1149C128.407 42.473 129.071 41.0592 129.163 39.8733C129.529 38.8699 129.849 38.3683 130.124 38.3683C130.582 37.8209 131.04 36.886 131.497 35.5633C131.955 34.2407 132.276 33.4425 132.459 33.1689L135.892 25.0961C136.808 23.4542 137.265 21.037 137.265 17.8444C137.265 14.4693 135.984 11.6416 133.42 9.36116C133.512 9.08751 132.527 8.08412 130.467 6.35099C128.407 4.61787 127.423 3.61448 127.515 3.34082C127.515 3.15839 127.423 2.95315 127.24 2.72511C127.057 2.49706 126.943 2.33743 126.897 2.24622C126.851 2.155 126.874 1.97257 126.965 1.69891C125.134 1.97257 124.173 2.95315 124.081 4.64067C123.99 6.32819 124.15 8.40338 124.562 10.8662C124.974 13.3291 124.402 16.1568 122.845 19.3495C121.106 22.9981 118.359 28.1519 114.605 34.8108C110.852 41.4696 108.196 46.2585 106.64 49.1775C104.259 53.5559 102.84 57.2502 102.383 60.2604C102.199 62.4496 102.291 63.7266 102.657 64.0915C103.298 68.0139 104.58 70.2031 106.503 70.6592C106.96 71.2977 107.281 71.845 107.464 72.3011C110.943 75.1288 116.436 75.3112 123.944 72.8484C125.089 72.5405 127.274 71.3661 130.467 69.3479C127.984 77.1014 125.512 84.8549 123.063 92.6311C121.232 98.4348 120.579 104.615 119.378 110.624C119.664 110.749 119.938 110.875 120.225 111C120.957 110.612 121.724 110.293 122.41 109.848C127.709 106.451 131.234 101.502 134.278 96.1544C141.5 83.4752 145.803 69.5988 150.713 55.9732C151.468 53.8752 150.129 53.2367 148.79 52.4043C145.002 50.0213 144.521 48.6416 146.742 44.8447C151.857 36.122 156.446 27.2397 157.614 16.9778C157.728 15.9972 158.667 14.5035 159.468 14.3211C162.958 13.5344 163.004 10.6496 163.805 8.15253C164.332 6.59044 163.691 5.80369 162.203 5.37041Z" fill="white"/>
</g>
<defs>
<clipPath id="clip0_380_9">
<rect width="164" height="111" fill="white"/>
</clipPath>
</defs>
</svg>
