<svg width="13" height="25" viewBox="0 0 13 25" fill="none" xmlns="http://www.w3.org/2000/svg">
<path d="M0.713184 25C-0.20138 24.6129 -0.133067 23.7316 0.461134 23.1237C3.8326 19.6756 7.17343 16.1951 10.526 12.7269C10.592 12.6584 10.6709 12.6027 10.7893 12.4364C10.7074 12.3875 10.6103 12.355 10.5455 12.2884C7.15812 8.78711 3.77547 5.28155 0.38811 1.78028C0.0818817 1.4641 -0.0912554 1.11733 0.0494921 0.665989C0.24913 0.0250578 0.99409 -0.207341 1.50231 0.209754C1.56945 0.264795 1.63128 0.328399 1.69253 0.391392C5.33253 4.15931 8.97371 7.92601 12.606 11.7019C12.7739 11.8762 12.904 12.1214 12.9729 12.3587C13.0548 12.6419 12.9494 12.9201 12.755 13.1464C12.6926 13.2192 12.6255 13.2883 12.5589 13.3568C8.98018 17.0617 5.4032 20.7685 1.81914 24.4685C1.6195 24.6746 1.3651 24.8238 1.13602 25C0.995268 25 0.853932 25 0.713184 25Z" fill="black"/>
</svg>
