<svg width="50" height="42" viewBox="0 0 50 42" fill="none" xmlns="http://www.w3.org/2000/svg">
<path d="M50 4.17655C49.707 5.56224 49.4072 6.946 49.123 8.33363C47.4434 16.5518 45.7676 24.771 44.0898 32.9902C43.7188 34.8081 43.3467 36.625 42.9736 38.4429C42.9473 38.5688 42.918 38.6948 42.8857 38.8198C42.1104 41.8586 39.2383 42.9439 36.6934 41.0883C34.9648 39.8276 33.332 38.4361 31.6582 37.1017C30.6191 36.2742 29.582 35.4447 28.5146 34.592C27.6279 35.4001 26.7559 36.1947 25.8848 36.9903C24.9746 37.8217 24.0684 38.656 23.1562 39.4855C22.0859 40.4594 20.8594 41.0437 19.3799 40.7627C17.792 40.4613 16.8311 39.4031 16.3008 37.9496C15.5039 35.7674 14.7451 33.5716 13.9717 31.3807C13.1982 29.1897 12.4189 27.0007 11.6611 24.8049C11.5547 24.4949 11.3975 24.3369 11.0811 24.2478C8.34473 23.4832 5.61328 22.7031 2.87988 21.927C2.72363 21.8824 2.56641 21.8398 2.41406 21.7855C1.30273 21.3843 0.392578 20.7651 0 19.5868C0 19.2961 0 19.0054 0 18.7147C0.269531 18.2815 0.451172 17.7418 0.827148 17.4414C1.41016 16.9753 2.09082 16.5819 2.79102 16.3154C15.4062 11.5149 28.0312 6.73669 40.6553 1.95751C42.2627 1.34897 43.8574 0.691978 45.499 0.18809C47.6826 -0.482468 49.6025 0.711358 49.9297 2.74144C49.9395 2.80249 49.9766 2.85869 50 2.9178C50 3.33739 50 3.75697 50 4.17655ZM24.0615 27.2876C24.3574 27.5269 24.6191 27.742 24.8838 27.9533C29.2803 31.4689 33.6768 34.9844 38.0752 38.4981C39.2734 39.4555 39.8369 39.2442 40.1357 37.7423C40.4346 36.2393 40.7412 34.7373 41.0479 33.2354C43.0342 23.4968 45.0215 13.7601 47.0059 4.02151C47.0469 3.81802 47.0596 3.6058 47.0625 3.39747C47.0674 3.02633 46.8652 2.8461 46.5039 2.93137C46.127 3.02052 45.7559 3.14552 45.3926 3.28312C31.626 8.49158 17.8594 13.7039 4.09375 18.9182C3.98047 18.9608 3.875 19.0228 3.6875 19.1149C3.83984 19.1672 3.90723 19.1953 3.97754 19.2147C6.72559 19.9957 9.47266 20.7826 12.2256 21.5461C12.4121 21.5985 12.6709 21.5335 12.8545 21.4415C19.6025 18.0296 26.3457 14.609 33.0898 11.1883C34.5518 10.447 36.0117 9.70188 37.4766 8.96833C38.208 8.60204 38.9658 8.75805 39.4033 9.33946C39.8447 9.92669 39.7812 10.6709 39.2334 11.2833C39.0928 11.4403 38.9453 11.5905 38.7998 11.7436C34.8506 15.9065 30.9023 20.0703 26.9531 24.2332C25.9961 25.2439 25.04 26.2546 24.0615 27.2876ZM18.4307 35.2228C18.5029 34.9854 18.5342 34.8963 18.5576 34.8052C19.1631 32.3807 19.7803 29.9591 20.3633 27.5298C20.501 26.9562 20.7695 26.5007 21.1729 26.0773C24.4365 22.6528 27.6885 19.2176 30.9424 15.7844C31.0293 15.6933 31.1016 15.5886 31.1807 15.4908C31.1641 15.4772 31.1465 15.4646 31.1299 15.451C25.5781 18.266 20.0264 21.081 14.4453 23.9105C15.7656 27.6577 17.0771 31.3797 18.4307 35.2228ZM22.7725 30.0018C22.1406 32.5454 21.5303 34.9999 20.9199 37.4545C20.9473 37.47 20.9736 37.4845 21.001 37.5C22.7275 35.9224 24.4531 34.3449 26.2051 32.7441C25.0518 31.8235 23.9434 30.9369 22.7725 30.0018Z" fill="white"/>
</svg>
