<svg width="54" height="34" viewBox="0 0 54 34" fill="none" xmlns="http://www.w3.org/2000/svg">
<path d="M0 2.66409C0.313594 1.38024 1.03078 0.46665 2.35687 0.163066C2.79844 0.0623444 3.26109 0.0212045 3.71391 0.0169486C5.47031 -7.47582e-05 7.22813 0.00418109 8.98453 0.0112742C11.0588 0.0183673 12.2077 0.825561 13.005 2.80028C13.9106 5.04027 14.7628 7.3058 15.7542 9.50608C16.7794 11.7773 18.0352 13.9293 19.5736 15.8998C19.6819 16.0388 19.7986 16.1707 19.9167 16.3027C19.9477 16.3381 19.9983 16.3566 20.0447 16.385C20.0447 15.9764 20.0405 15.5806 20.0461 15.1862C20.07 13.3817 20.0573 11.5758 20.1319 9.7742C20.2036 8.04916 19.8942 6.48868 18.7537 5.12539C18.1406 4.39338 17.8186 3.4954 17.9719 2.50804C18.1898 1.10645 19.4217 0.0368093 20.9081 0.0226231C23.9302 -0.00433061 26.9536 -0.00858646 29.9756 0.0240417C31.718 0.0424838 32.7361 1.13056 32.895 3.13365C32.985 4.27706 32.9695 5.43039 32.9681 6.57805C32.9667 8.94856 32.9414 11.3191 32.9287 13.6896C32.9287 13.8073 32.94 13.9251 32.9527 14.1719C33.2114 13.9208 33.4027 13.7548 33.5714 13.5676C35.3531 11.5844 36.7031 9.30605 37.9378 6.96108C38.6691 5.57367 39.3272 4.14512 39.96 2.70948C40.7433 0.934794 42.0595 0.0212045 43.9861 0.0112742C45.7959 0.00276248 47.6058 0.00559971 49.4156 0.0126928C49.7475 0.0141114 50.0836 0.0424838 50.4098 0.0978098C52.2703 0.419836 53.3686 1.94343 52.868 3.77061C52.4981 5.11971 51.9539 6.4447 51.3155 7.69167C49.5858 11.0765 47.5144 14.2556 45.3305 17.3595C44.8636 18.0235 44.8777 18.0079 45.4162 18.6136C47.468 20.916 49.5492 23.1957 51.5419 25.5492C52.657 26.8671 53.5598 28.3482 54.0014 30.0604C54.0014 30.4846 54.0014 30.9102 54.0014 31.3343C53.183 33.3601 52.245 33.9872 50.0302 33.9886C48.3427 33.99 46.6552 33.9645 44.9691 33.9957C43.5516 34.0226 42.3352 33.5573 41.355 32.5515C40.1977 31.3656 39.1373 30.0831 37.9547 28.9241C36.7116 27.7069 35.3827 26.5763 34.0692 25.4329C33.7866 25.1861 33.4097 25.0485 33.0342 24.8357C33.0005 25.03 32.9639 25.1478 32.9625 25.2655C32.947 26.626 32.8289 27.9949 32.947 29.344C33.2016 32.2877 31.9092 33.5502 29.0602 33.8737C24.615 34.3787 20.6241 33.0707 16.9509 30.6279C13.4395 28.2928 10.6383 25.23 8.22375 21.8012C4.81641 16.9708 2.16422 11.7503 0.50625 6.04465C0.305156 5.35237 0.167344 4.64164 0 3.93943C0 3.51384 0 3.08967 0 2.66409ZM3.35531 3.40886C3.50156 4.05433 3.59859 4.63029 3.76312 5.18497C5.37328 10.6083 7.92422 15.5636 11.1994 20.1457C13.2961 23.0794 15.705 25.7166 18.7116 27.741C21.7842 29.8093 25.1184 30.9144 28.8633 30.513C29.392 30.4562 29.6072 30.3073 29.5987 29.7171C29.5734 27.9311 29.5594 26.1408 29.6536 24.3576C29.7633 22.2736 30.8602 21.3515 32.9273 21.4352C33.9075 21.475 34.8216 21.7956 35.5711 22.38C37.0125 23.5036 38.4356 24.6612 39.7575 25.9223C41.0048 27.1125 42.1172 28.446 43.2802 29.7256C43.8328 30.3342 44.467 30.6378 45.322 30.6066C46.8844 30.5498 48.4495 30.591 50.0147 30.5896C50.1961 30.5896 50.3775 30.5711 50.6222 30.5584C50.5083 30.2761 50.4563 30.0434 50.3325 29.8604C49.628 28.8064 48.9909 27.6899 48.1725 26.7323C46.4189 24.6824 44.5711 22.7134 42.7528 20.7202C42.1973 20.1117 41.7319 19.4591 41.5519 18.6377C41.3016 17.4986 41.7952 16.5651 42.3886 15.6671C43.283 14.3124 44.2406 12.9959 45.0773 11.6056C46.4316 9.35429 47.7169 7.06038 49.0092 4.77215C49.2356 4.37068 49.3537 3.9068 49.5464 3.40461C47.693 3.40461 45.9548 3.43014 44.2167 3.39184C43.5727 3.37765 43.2436 3.61031 42.9905 4.20471C41.5209 7.65904 39.7673 10.9602 37.5567 13.9988C36.5555 15.3749 35.4909 16.6885 34.0031 17.5752C31.6308 18.9867 29.6972 17.9908 29.6325 15.2259C29.5453 11.5106 29.5777 7.79381 29.5594 4.07703C29.558 3.87133 29.5594 3.66421 29.5594 3.43582C26.9269 3.43582 24.3577 3.43582 21.7603 3.43582C21.7969 3.5181 21.8081 3.56917 21.8377 3.60605C23.078 5.21902 23.5041 7.08024 23.4984 9.07907C23.4914 11.5744 23.5027 14.0698 23.4956 16.5651C23.4942 17.0772 23.4703 17.5922 23.4084 18.1001C23.13 20.3826 21.1584 21.3615 19.2488 20.0975C18.4542 19.5726 17.7314 18.8817 17.1169 18.1469C14.8894 15.487 13.32 12.4171 11.9348 9.25782C11.1769 7.52995 10.5441 5.74816 9.855 3.9905C9.73547 3.68549 9.61453 3.40177 9.20813 3.40319C7.29281 3.4117 5.3775 3.40886 3.35531 3.40886Z" fill="white"/>
</svg>
