<svg width="53" height="38" viewBox="0 0 53 38" fill="none" xmlns="http://www.w3.org/2000/svg">
<path d="M0 15.3868C0.0675265 14.3961 0.0966149 13.4003 0.210891 12.4148C0.41347 10.676 0.554756 8.91857 0.924594 7.21291C1.6757 3.74254 4.46298 1.32085 8.00241 0.828631C12.1787 0.248336 16.383 0.0752839 20.5873 0.0276169C25.6538 -0.0293764 30.7256 -0.00450664 35.7901 0.146785C38.9192 0.241083 42.0597 0.497034 45.1586 0.935364C49.099 1.49286 51.5518 4.08968 52.2686 8.00667C52.7507 10.6387 52.9034 13.2998 52.9584 15.9629C53.0405 19.9535 53.0426 23.9461 52.5574 27.916C52.3975 29.2227 52.2198 30.5656 51.7731 31.7926C50.6314 34.9303 48.2752 36.6815 44.9779 37.1613C40.8058 37.7696 36.5983 37.9209 32.394 37.9696C27.396 38.0276 22.3939 38.0059 17.3979 37.8525C14.2003 37.7551 10.9912 37.4971 7.82269 37.0587C3.89264 36.5147 1.35469 33.9013 0.744869 29.9822C0.417626 27.8807 0.30335 25.7471 0.0924594 23.627C0.0623322 23.3223 0.0301272 23.0177 0 22.714C0 20.2727 0 17.8292 0 15.3868ZM27.7825 3.95808C23.2073 4.0845 19.9982 4.12388 16.7954 4.27621C14.1629 4.40159 11.5315 4.61195 8.90831 4.87619C6.54592 5.11349 5.30447 6.26683 4.84529 8.58593C4.60219 9.81284 4.45363 11.0657 4.36014 12.3143C4.06821 16.2303 4.02458 20.1545 4.26768 24.0726C4.3913 26.057 4.63336 28.0445 4.99281 29.9999C5.27746 31.5459 6.38385 32.4889 7.9006 32.9055C8.33069 33.0236 8.77741 33.1117 9.22101 33.1407C13.0742 33.3904 16.9253 33.7552 20.7815 33.8277C25.8138 33.9231 30.8513 33.8443 35.8836 33.722C38.6023 33.6557 41.321 33.3946 44.0294 33.1252C46.5507 32.8734 47.814 31.6651 48.1952 29.1688C48.455 27.4725 48.671 25.7544 48.7116 24.0415C48.7915 20.6385 48.8196 17.2292 48.7064 13.8283C48.6419 11.8801 48.3552 9.92476 47.9895 8.00667C47.6872 6.4233 46.5663 5.43783 44.9851 5.08137C44.0803 4.87723 43.1515 4.72386 42.2269 4.67412C36.9609 4.39226 31.6907 4.14875 27.7825 3.95808Z" fill="white"/>
<path d="M21.248 10.6545C26.0798 13.4431 30.8451 16.1932 35.706 18.9984C30.8524 21.7993 26.0788 24.5547 21.248 27.3432C21.248 21.7579 21.248 16.2492 21.248 10.6545Z" fill="white"/>
</svg>
