<?xml version="1.0" standalone="no"?>
<!DOCTYPE svg PUBLIC "-//W3C//DTD SVG 20010904//EN"
 "http://www.w3.org/TR/2001/REC-SVG-20010904/DTD/svg10.dtd">
<svg version="1.0" xmlns="http://www.w3.org/2000/svg"
 width="120.000000pt" height="120.000000pt" viewBox="0 0 120.000000 120.000000"
 preserveAspectRatio="xMidYMid meet">
<metadata>
Created by potrace 1.14, written by Peter Selinger 2001-2017
</metadata>
<g transform="translate(0.000000,120.000000) scale(0.100000,-0.100000)"
fill="#000000" stroke="none">
<path d="M999 1133 c-70 -67 -205 -205 -305 -312 -38 -41 -102 -108 -143 -150
-40 -42 -117 -123 -170 -180 -53 -57 -105 -113 -116 -125 -70 -74 -245 -302
-245 -321 0 -6 52 -1 108 11 17 3 32 11 32 16 0 5 4 7 8 4 11 -6 163 94 234
154 29 25 118 109 197 186 l144 142 -22 36 c-38 61 -23 82 136 190 42 28 127
119 172 184 18 25 29 32 56 32 25 0 40 8 64 35 17 20 31 37 31 39 0 1 -27 28
-60 60 l-61 57 -60 -58z"/>
</g>
</svg>
