<?xml version="1.0" encoding="utf-8"?><svg viewBox="0 0 164 111" xmlns="http://www.w3.org/2000/svg" xmlns:xlink="http://www.w3.org/1999/xlink"><style>:root>svg{display:none}:root>svg:target{display:block}</style><svg fill="none" viewBox="0 0 164 111" id="404" xmlns="http://www.w3.org/2000/svg"><g clip-path="url(#aclip0_380_9)" fill="#fff"><path d="M59.9 3.671c-2.323-.66-4.669-1.3-6.935-2.155-2.209-.832-3.376-.296-4.12 1.984-5.619 17.503-11.295 34.994-16.938 52.496-1.156 1.129-2.815 2.337-5.047 3.66-3.387 2.007-5.86 3.147-7.416 3.42-.915.548-1.694.411-2.334-.41-1.008-1.368-.87-3.238.412-5.61 0-.456.434-1.185 1.304-2.189.87-1.003 1.396-1.687 1.58-2.052.091-.73.32-1.665.686-2.805.367-1.14.55-1.984.55-2.531.64-.548.96-1.05.96-1.505.276-.73 1.03-1.916 2.267-3.558 1.236-1.642 1.9-3.056 1.991-4.242.367-1.003.687-1.505.962-1.505.457-.547.915-1.482 1.373-2.805.458-1.322.778-2.12.961-2.394l3.434-8.073c.915-1.642 1.373-4.059 1.373-7.252 0-3.375-1.282-6.202-3.845-8.483.091-.273-.893-1.277-2.953-3.01-2.06-1.733-3.044-2.736-2.953-3.01 0-.183-.091-.388-.274-.616a3.423 3.423 0 01-.344-.479c-.034-.09-.011-.273.08-.547-1.83.274-2.792 1.254-2.884 2.942-.091 1.687.069 3.762.481 6.225.412 2.463-.16 5.29-1.717 8.484-1.74 3.648-4.486 8.802-8.24 15.46C8.56 39.772 5.905 44.56 4.35 47.48 1.969 51.857.549 55.55.092 58.562c-.184 2.189-.092 3.466.274 3.83.641 3.923 1.923 6.112 3.846 6.568.457.639.778 1.186.96 1.642 3.48 2.828 8.973 3.01 16.481.547 1.145-.307 3.33-1.482 6.523-3.5a5025.127 5025.127 0 00-7.404 23.283c-1.831 5.804-2.484 11.984-3.685 17.993.286.125.56.251.847.376.732-.388 1.499-.707 2.185-1.152 5.3-3.397 8.824-8.346 11.868-13.694C39.21 81.776 43.512 67.9 48.422 54.276c.755-2.099-.584-2.737-1.923-3.57-3.788-2.383-4.269-3.762-2.049-7.56 5.116-8.722 9.706-17.604 10.873-27.866.114-.98 1.053-2.474 1.854-2.657 3.49-.787 3.536-3.671 4.337-6.168.504-1.574-.126-2.36-1.613-2.783zM74.801 20.113l1.373 1.506c2.015-4.47 3.205-6.887 3.571-7.252.275-.548.778-.867 1.51-.958.733-.091 1.19-.228 1.374-.41 1.282 1.094 2.655 1.641 4.12 1.641.366 0 .916-.09 1.648-.273.824 0 2.083.342 3.777 1.026 1.694.684 2.632 1.072 2.815 1.163l2.06 2.19c1.923.82 3.388 3.192 4.395 7.114 1.007 3.922 1.511 7.571 1.511 10.946 0 8.483-1.557 16.739-4.67 24.766-.915 2.645-2.93 6.202-6.042 10.672-3.114 4.47-6.318 7.434-9.614 8.894l-.687.684c-1.922 1.003-4.806 1.961-8.652 2.873h-1.373c-7.141 0-12.703-2.531-16.686-7.594-3.983-5.062-5.974-11.06-5.974-17.992 0-1.55 1.053-6.66 3.159-15.325 3.387-6.567 7.736-13.272 13.046-20.113.641-1.186 2.793-2.372 6.455-3.558h2.884zm-1.51 10.81h-.687c-.733 1.003-1.465 2.463-2.198 4.378-.732 1.916-1.419 3.33-2.06 4.242h.687c0 .73-.275 1.642-.824 2.736-.55 1.095-1.007 1.825-1.373 2.19 0 .456-.115 1.185-.344 2.189-.229 1.003-.343 1.733-.343 2.189v2.873c-.824 0-1.51 2.44-2.06 7.32-.55 4.88-.824 8.187-.824 9.92.091.365.252.98.48 1.847.23.867.435 1.528.619 1.984.183.457.434.981.755 1.574.32.593.755 1.026 1.305 1.3.549.273 1.19.41 1.922.41a27.013 27.013 0 008.927-7.115c2.472-3.01 5.814-8.62 10.025-16.83 1.465-3.01 2.793-6.613 3.983-10.809 1.19-4.196 1.785-7.707 1.785-10.535 0-2.463-.87-5.085-2.609-7.868-1.74-2.782-3.845-4.447-6.317-4.994-.367.456-.664 1.095-.893 1.916-.229.82-.435 1.824-.618 3.01-.183 1.186-.412 2.19-.687 3.01v1.505c-.457.912-.686 2.098-.686 3.558.183.182.274.41.274.684l-.274.684c-.458 1.642-.939 4.173-1.442 7.594-.504 3.42-1.007 6.111-1.511 8.073-.504 1.96-1.213 2.941-2.129 2.941-1.373 0-2.586-.707-3.639-2.12-1.053-1.414-1.58-2.988-1.58-4.721 0-3.831.779-8.21 2.335-13.135zM162.203 5.37c-2.323-.66-4.669-1.3-6.935-2.155-2.209-.832-3.376-.296-4.12 1.984-5.62 17.503-11.296 34.994-16.938 52.496-1.156 1.129-2.816 2.337-5.047 3.66-3.388 2.007-5.86 3.147-7.416 3.42-.916.548-1.694.411-2.335-.41-1.007-1.368-.87-3.238.412-5.61 0-.456.435-1.186 1.305-2.189.869-1.003 1.396-1.687 1.579-2.052.092-.73.32-1.665.687-2.805.366-1.14.549-1.984.549-2.532.641-.547.961-1.048.961-1.505.275-.73 1.03-1.915 2.266-3.557s1.9-3.056 1.992-4.242c.366-1.003.686-1.505.961-1.505.458-.547.916-1.482 1.373-2.805.458-1.322.779-2.12.962-2.394l3.433-8.073c.916-1.642 1.373-4.059 1.373-7.252 0-3.375-1.281-6.202-3.845-8.483.092-.273-.893-1.277-2.953-3.01-2.06-1.733-3.044-2.737-2.952-3.01 0-.183-.092-.388-.275-.616a3.44 3.44 0 01-.343-.479c-.046-.091-.023-.273.068-.547-1.831.274-2.792 1.254-2.884 2.942-.091 1.687.069 3.762.481 6.225.412 2.463-.16 5.29-1.717 8.483-1.739 3.65-4.486 8.803-8.24 15.462-3.753 6.659-6.409 11.447-7.965 14.367-2.381 4.378-3.8 8.072-4.257 11.082-.184 2.19-.092 3.467.274 3.831.641 3.923 1.923 6.112 3.846 6.568.457.639.778 1.186.961 1.642 3.479 2.828 8.972 3.01 16.48.547 1.145-.308 3.33-1.482 6.523-3.5a5065.536 5065.536 0 00-7.404 23.283c-1.831 5.804-2.484 11.984-3.685 17.993.286.125.56.251.847.376.732-.388 1.499-.707 2.185-1.152 5.299-3.397 8.824-8.346 11.868-13.694 7.222-12.679 11.525-26.555 16.435-40.18.755-2.099-.584-2.737-1.923-3.57-3.788-2.383-4.269-3.762-2.048-7.56 5.115-8.722 9.704-17.604 10.872-27.866.114-.98 1.053-2.475 1.854-2.657 3.49-.787 3.536-3.671 4.337-6.168.527-1.563-.114-2.35-1.602-2.783z"/></g><defs><clipPath id="aclip0_380_9"><path fill="#fff" d="M0 0h164v111H0z"/></clipPath></defs></svg><svg fill="none" viewBox="0 0 13 25" id="arrow-next" xmlns="http://www.w3.org/2000/svg"><path d="M.713 25c-.914-.387-.846-1.268-.252-1.876 3.372-3.448 6.712-6.929 10.065-10.397.066-.069.145-.124.263-.29-.082-.05-.179-.082-.243-.149C7.158 8.788 3.776 5.282.388 1.78.082 1.464-.092 1.117.05.666.25.026.994-.207 1.502.21c.067.055.13.118.19.181 3.64 3.768 7.282 7.535 10.914 11.31.168.175.298.42.367.658.082.283-.024.561-.218.787-.062.073-.13.142-.196.21-3.579 3.706-7.156 7.412-10.74 11.112-.2.207-.454.356-.683.532H.713z" fill="#000"/></svg><svg fill="none" viewBox="0 0 15 16" id="modal-close" xmlns="http://www.w3.org/2000/svg"><path stroke="#000" d="M.354.646l14.117 14.118M14.08.344L.363 14.851"/></svg><svg fill="none" viewBox="0 0 50 42" id="telegram" xmlns="http://www.w3.org/2000/svg"><path d="M50 4.177c-.293 1.385-.593 2.769-.877 4.157-1.68 8.218-3.355 16.437-5.033 24.656-.371 1.818-.743 3.635-1.116 5.453a8.257 8.257 0 01-.088.377c-.776 3.039-3.648 4.124-6.193 2.268-1.728-1.26-3.361-2.652-5.035-3.986-1.039-.828-2.076-1.657-3.143-2.51-.887.808-1.76 1.603-2.63 2.398-.91.832-1.817 1.666-2.729 2.495-1.07.974-2.297 1.559-3.776 1.278-1.588-.302-2.549-1.36-3.08-2.813-.796-2.183-1.555-4.378-2.328-6.57-.774-2.19-1.553-4.38-2.31-6.575-.107-.31-.264-.468-.58-.557-2.737-.765-5.469-1.545-8.202-2.321-.156-.045-.314-.087-.466-.142-1.111-.4-2.021-1.02-2.414-2.198v-.872c.27-.433.451-.973.827-1.274a7.424 7.424 0 011.964-1.126c12.615-4.8 25.24-9.578 37.864-14.357C42.263 1.349 43.857.692 45.5.188c2.184-.67 4.103.523 4.43 2.553.01.061.048.118.071.177v1.259zm-25.939 23.11c.296.24.558.455.823.666 4.396 3.516 8.793 7.031 13.191 10.545 1.198.958 1.762.746 2.06-.756.3-1.503.606-3.005.913-4.507 1.986-9.738 3.974-19.475 5.958-29.213.04-.204.054-.416.056-.625.005-.37-.197-.55-.558-.466-.377.09-.748.215-1.111.352-13.767 5.209-27.534 10.42-41.3 15.635-.113.043-.218.105-.405.197.152.052.22.08.29.1 2.748.78 5.495 1.568 8.248 2.331.186.053.445-.012.628-.104 6.748-3.412 13.492-6.833 20.236-10.254 1.462-.741 2.922-1.486 4.387-2.22.731-.366 1.489-.21 1.926.371.442.588.378 1.332-.17 1.944-.14.157-.288.308-.433.46l-11.847 12.49-2.892 3.055zm-5.63 7.936c.072-.238.103-.327.127-.418.605-2.424 1.222-4.846 1.805-7.275.138-.574.407-1.03.81-1.453 3.264-3.424 6.516-6.86 9.77-10.293.086-.09.159-.195.238-.293-.017-.014-.035-.026-.051-.04l-16.685 8.46 3.986 11.312zm4.341-5.221l-1.852 7.453.081.045 5.204-4.756-3.432-2.742z" fill="#fff"/></svg><svg fill="none" viewBox="0 0 54 34" id="vk" xmlns="http://www.w3.org/2000/svg"><path d="M0 2.664C.314 1.38 1.03.467 2.357.164 2.798.061 3.26.02 3.714.016 5.47 0 7.228.004 8.984.01c2.075.007 3.224.815 4.021 2.79.906 2.24 1.758 4.505 2.75 6.705 1.024 2.271 2.28 4.423 3.819 6.394.108.139.225.27.343.403.03.035.081.054.128.082 0-.409-.005-.804.001-1.199.024-1.804.011-3.61.086-5.412.072-1.725-.238-3.285-1.378-4.649-.613-.732-.935-1.63-.782-2.617.218-1.402 1.45-2.471 2.936-2.485 3.022-.027 6.046-.032 9.068.001 1.742.018 2.76 1.107 2.919 3.11.09 1.143.074 2.296.073 3.444-.001 2.37-.027 4.741-.04 7.112 0 .117.012.235.025.482.258-.251.45-.417.618-.604 1.782-1.984 3.132-4.262 4.367-6.607.731-1.387 1.39-2.816 2.022-4.252.783-1.774 2.1-2.688 4.026-2.698 1.81-.008 3.62-.005 5.43.002.332.001.668.03.994.085 1.86.322 2.959 1.845 2.458 3.673-.37 1.349-.914 2.674-1.553 3.92-1.73 3.385-3.8 6.565-5.984 9.669-.467.663-.453.648.085 1.254 2.052 2.302 4.133 4.582 6.126 6.935 1.115 1.318 2.018 2.8 2.46 4.511v1.274c-.819 2.026-1.757 2.653-3.972 2.655-1.687.001-3.375-.024-5.06.007-1.418.027-2.635-.439-3.615-1.445-1.157-1.185-2.218-2.468-3.4-3.627-1.243-1.217-2.572-2.348-3.886-3.491-.282-.247-.66-.384-1.035-.597-.033.194-.07.312-.072.43-.015 1.36-.133 2.729-.015 4.078.255 2.944-1.038 4.206-3.887 4.53-4.445.505-8.436-.803-12.11-3.246-3.51-2.335-6.312-5.398-8.726-8.827-3.408-4.83-6.06-10.05-7.718-15.756C.306 5.352.167 4.642 0 3.939V2.664zm3.355.745c.147.645.244 1.221.408 1.776 1.61 5.423 4.161 10.379 7.436 14.96 2.097 2.934 4.506 5.572 7.513 7.596 3.072 2.068 6.406 3.173 10.151 2.772.529-.057.744-.206.736-.796-.026-1.786-.04-3.576.055-5.36.11-2.083 1.206-3.005 3.273-2.922.98.04 1.895.36 2.644.945 1.442 1.124 2.865 2.281 4.187 3.542 1.247 1.19 2.36 2.524 3.522 3.804.553.608 1.187.912 2.042.88 1.562-.056 3.127-.015 4.693-.016.181 0 .362-.019.607-.032-.114-.282-.166-.515-.29-.698-.704-1.054-1.341-2.17-2.16-3.128-1.753-2.05-3.6-4.019-5.42-6.012-.555-.608-1.02-1.26-1.2-2.082-.25-1.14.243-2.073.837-2.97.894-1.356 1.852-2.672 2.688-4.062 1.355-2.252 2.64-4.546 3.932-6.834.227-.401.345-.865.537-1.367-1.853 0-3.591.025-5.33-.013-.643-.014-.972.218-1.226.813-1.47 3.454-3.223 6.755-5.433 9.794-1.002 1.376-2.066 2.69-3.554 3.576-2.372 1.412-4.306.416-4.37-2.35-.088-3.714-.055-7.431-.074-11.148v-.641H21.76c.037.082.048.133.078.17 1.24 1.613 1.666 3.474 1.66 5.473-.007 2.495.005 4.99-.002 7.486a13.005 13.005 0 01-.088 1.535c-.278 2.283-2.25 3.261-4.16 1.997-.794-.524-1.517-1.215-2.131-1.95-2.228-2.66-3.797-5.73-5.182-8.89-.758-1.727-1.39-3.509-2.08-5.266-.12-.306-.24-.59-.647-.588-1.915.009-3.83.006-5.853.006z" fill="#fff"/></svg><svg fill="none" viewBox="0 0 53 38" id="youtube" xmlns="http://www.w3.org/2000/svg"><path d="M0 15.387c.068-.99.097-1.987.21-2.972.203-1.739.345-3.496.715-5.202.75-3.47 3.538-5.892 7.077-6.384C12.18.249 16.383.075 20.587.028A369.931 369.931 0 0135.79.147c3.13.094 6.27.35 9.369.788 3.94.558 6.393 3.155 7.11 7.072.482 2.632.634 5.293.69 7.956.081 3.99.084 7.983-.402 11.953-.16 1.307-.337 2.65-.784 3.877-1.142 3.137-3.498 4.889-6.795 5.368-4.172.609-8.38.76-12.584.809-4.998.058-10 .036-14.996-.117a89.977 89.977 0 01-9.575-.794c-3.93-.544-6.468-3.158-7.078-7.077-.327-2.101-.442-4.235-.653-6.355L0 22.714v-7.327zM27.782 3.958c-4.575.127-7.784.166-10.987.318-2.632.126-5.264.336-7.887.6-2.362.237-3.604 1.39-4.063 3.71a31.201 31.201 0 00-.485 3.728 86.243 86.243 0 00-.092 11.759A50.07 50.07 0 004.993 30c.284 1.546 1.39 2.489 2.908 2.906.43.118.876.206 1.32.235 3.853.25 7.704.614 11.56.687 5.033.095 10.07.016 15.103-.106 2.718-.066 5.437-.327 8.145-.597 2.522-.252 3.785-1.46 4.166-3.956.26-1.697.476-3.415.517-5.128.08-3.402.108-6.812-.006-10.213-.064-1.948-.35-3.903-.717-5.821-.302-1.584-1.423-2.57-3.004-2.926a16.678 16.678 0 00-2.758-.407c-5.266-.282-10.536-.525-14.444-.716z" fill="#fff"/><path d="M21.248 10.655l14.458 8.343-14.458 8.345V10.655z" fill="#fff"/></svg></svg>